<svg width="232" height="232" viewBox="0 0 232 232" fill="none" xmlns="http://www.w3.org/2000/svg">
<path d="M158.86 77.905C155.233 74.74 150.017 74.812 147.024 75.7319C148.984 73.3355 153.551 71.3706 154.896 71.1321C155.921 71.5145 158.86 74.5205 158.86 77.905ZM170.44 64.7984C168.055 52.0969 138.401 60.5129 123.468 55.118C123.182 58.8206 128.065 64.753 132.736 66.9488C124.752 73.8466 117.583 87.7444 116.137 104.724C114.695 87.7444 107.526 73.8466 99.5411 66.9488C104.212 64.753 109.1 58.8206 108.81 55.118C93.8765 60.5129 64.223 52.0969 61.8334 64.7984C61.3308 67.4864 62.63 71.5826 64.0336 72.76C64.2849 71.9082 65.5957 69.1218 69.7292 68.4972C90.6207 65.3549 108.063 97.4059 92.3182 110.365C92.0785 110.562 92.2138 110.925 92.5386 110.925H139.743C140.064 110.925 140.199 110.562 139.963 110.365C124.214 97.4059 141.657 65.3549 162.548 68.4972C166.686 69.1218 167.993 71.9082 168.244 72.76C169.648 71.5826 170.947 67.4864 170.44 64.7984ZM175.521 35.6475C175.146 34.4473 187.396 34.4171 187.396 42.0493C187.396 47.164 180.068 49.5869 180.068 54.8947C180.068 57.3668 182.74 59.1802 183.56 59.1802C181.673 50.6583 189.476 55.118 191.583 56.7119C187.396 45.2521 196.822 45.3241 195.895 40.0693C195.249 36.3971 187.055 37.5063 184.09 35.6475C178.827 32.35 172.602 19.5198 168.499 32.35C176.147 39.4182 171.697 49.8216 161.988 49.8216C161.988 49.8216 161.934 51.3473 162.023 51.4685C173.603 50.9044 177.64 42.4317 175.521 35.6475ZM40.4121 56.7119C42.5195 55.118 50.3224 50.6583 48.4393 59.1802C49.2552 59.1802 51.927 57.3668 51.927 54.8947C51.927 49.5869 44.5997 47.164 44.5997 42.0493C44.5997 34.4171 56.8493 34.4473 56.4742 35.6475C54.3592 42.4317 58.396 50.9044 69.9766 51.4685C70.0617 51.3473 70.0076 49.8216 70.0076 49.8216C60.3022 49.8216 55.8517 39.4182 63.4961 32.35C59.3936 19.5198 53.1682 32.35 47.9057 35.6475C44.94 37.5063 36.7465 36.3971 36.1008 40.0693C35.1767 45.3241 44.5997 45.2521 40.4121 56.7119ZM73.2942 77.905C76.925 74.74 82.1412 74.812 85.1301 75.7319C83.1774 73.3355 78.6031 71.3706 77.2614 71.1321C76.2367 71.5145 73.2942 74.5205 73.2942 77.905ZM121.647 6.85615L115.998 0L110.348 6.85615L115.998 14.072L121.647 6.85615ZM153.895 27.5874L149.877 22.715L145.864 27.5874L149.877 32.35L153.895 27.5874ZM186.479 168.428L181.387 163.064L176.294 168.428L181.387 173.134L186.479 168.428ZM86.1354 27.5874L82.118 22.715L78.1043 27.5874L82.118 32.35L86.1354 27.5874ZM74.6282 51.4685H89.6115C102.209 51.4685 107.878 43.7719 109.591 37.0974H122.409C124.122 43.7719 129.786 51.4685 142.388 51.4685H157.371C157.371 51.4685 159.993 47.9287 160.65 46.1759C163.016 39.8687 159.993 36.9271 155.581 36.9271L149.877 42.072L144.174 36.9271C139.762 36.9271 136.738 39.8687 139.105 46.1759C139.406 46.9823 140.129 48.1672 140.814 49.2083C135.497 48.4815 128.711 44.8584 127.223 37.0974C127.223 37.0974 131.151 30.8849 132.137 28.3711C135.679 19.3305 131.155 15.6355 124.539 15.6355L115.998 25.6301L107.456 15.6355C100.84 15.6355 96.3163 19.3305 99.8621 28.3711C100.844 30.8849 104.777 37.0974 104.777 37.0974C103.284 44.8584 96.4981 48.4815 91.1814 49.2083C91.8697 48.1672 92.5889 46.9823 92.8905 46.1759C95.253 39.8687 92.237 36.9271 87.8213 36.9271L82.118 42.072L76.4146 36.9271C71.9989 36.9271 68.9829 39.8687 71.3454 46.1759C72.0028 47.9287 74.6282 51.4685 74.6282 51.4685ZM229.538 97.7012C226.646 99.1587 209.679 107.071 187.945 104.145C188.173 103.111 188.358 102.07 188.517 101.029C202.982 99.3063 214.741 96.8645 222.234 92.7152C230.776 87.9829 234.511 76.686 230.2 68.2814C230.087 68.0694 229.778 68.0315 229.623 68.2095C227.261 70.9163 212.405 87.0024 189 92.0035C188.938 90.7882 188.83 89.5881 188.668 88.3956C200.036 81.9786 211.133 74.5848 216.419 67.8233C224.407 57.6015 223.673 44.5631 216.071 37.9152C215.908 37.7713 215.645 37.813 215.533 37.9909C213.128 41.9395 190.617 78.1587 165.901 93.7942C165.653 93.9532 165.321 94.1576 164.988 94.3583C164.281 94.786 164.203 95.7022 164.807 96.2474C167.656 98.818 169.427 102.396 169.427 106.367C169.427 113.272 164.08 119.015 157.011 120.261C153.419 120.954 148.234 120.753 143.254 119.114C143.029 119.042 142.797 119.19 142.797 119.413V141.284C142.797 141.636 143.335 141.723 143.463 141.386C146.49 133.402 155.554 131.706 159.517 131.706C160.944 140.239 163.492 147.307 166.802 151.112C172.192 157.294 180.992 157.207 184.809 152.933C184.94 152.785 184.902 152.554 184.724 152.456C182.481 151.172 169.651 143.332 167.084 130.483C168.097 130.134 169.087 129.741 170.034 129.275C174.175 136.097 180.204 142.173 185.056 144.494C193.207 148.386 200.67 146.493 203.98 140.795C204.1 140.595 203.953 140.345 203.709 140.322C198.667 139.921 183.193 135.507 176.604 124.751C177.358 124.062 178.096 123.343 178.785 122.578C185.679 127.802 195.427 132.421 202.406 133.364C210.572 134.469 219.825 131.876 220.05 122.423C220.053 122.233 219.883 122.078 219.682 122.09C216.778 122.264 197.557 123.097 183.861 115.271C184.337 114.374 184.778 113.458 185.192 112.523C185.192 112.523 205.886 117.391 215.692 115.779C225.436 114.177 231.143 106.946 230.041 97.951C230.01 97.7276 229.747 97.5952 229.538 97.7012ZM46.8037 112.523C47.2174 113.458 47.6621 114.374 48.1377 115.271C34.4459 123.093 15.2324 122.267 12.3169 122.09C12.112 122.078 11.9419 122.241 11.9457 122.426C12.1739 131.876 21.4229 134.469 29.5893 133.364C36.5648 132.421 46.3165 127.802 53.2108 122.578C53.9029 123.343 54.6376 124.062 55.3916 124.751C48.7989 135.507 33.3284 139.921 28.2863 140.322C28.0427 140.345 27.8996 140.595 28.0156 140.795C31.3255 146.493 38.7881 148.386 46.9429 144.494C51.7917 142.173 57.8198 136.097 61.961 129.275C62.9122 129.741 63.9021 130.134 64.9113 130.483C62.3438 143.332 49.5142 151.172 47.2716 152.456C47.0976 152.554 47.055 152.785 47.1865 152.933C51.0029 157.207 59.8073 157.294 65.1974 151.112C68.5073 147.307 71.0516 140.239 72.4784 131.706C76.4455 131.706 85.5051 133.402 88.5327 141.386C88.6642 141.723 89.2017 141.636 89.2017 141.284V119.413C89.2017 119.19 88.9658 119.042 88.7415 119.114C83.7613 120.753 78.5761 120.954 74.9878 120.261C67.9157 119.015 62.5681 113.272 62.5681 106.367C62.5681 102.396 64.3429 98.8142 67.1888 96.2436C67.7958 95.7022 67.7146 94.786 67.0109 94.3583C66.6745 94.1576 66.342 93.9532 66.0906 93.7942C41.3904 78.1662 18.8903 41.9736 16.4659 37.9985C16.3537 37.813 16.0831 37.7751 15.9168 37.919C8.32655 44.5707 7.58802 57.6053 15.5765 67.8233C20.8623 74.5848 31.9596 81.9786 43.3237 88.3956C43.1652 89.5881 43.053 90.7882 42.995 92.0035C19.6095 87.0062 4.76535 70.9466 2.37962 68.2208C2.22109 68.0353 1.90402 68.0732 1.79576 68.2852C-2.50784 76.6935 1.22736 87.9829 9.76108 92.7152C17.2547 96.8645 29.0132 99.3063 43.4784 101.029C43.6369 102.07 43.8225 103.111 44.0506 104.145C22.3393 107.067 5.38015 99.1738 2.46469 97.7049C2.24815 97.5951 1.98522 97.7314 1.95816 97.9586C0.860023 106.954 6.56335 114.177 16.3073 115.779C26.1093 117.391 46.8037 112.523 46.8037 112.523ZM181.387 180.043L173.847 174.137C170.839 175.92 168.627 178.752 167.768 182.072C163.233 182.705 150.867 179.971 152.07 178.158C165.622 159.183 155.256 147.886 142.797 148.515V161.258C142.797 165.35 139.209 168.667 134.79 168.667H126.186C120.015 168.667 115.998 174.841 115.998 174.841C115.998 174.841 111.98 168.667 105.809 168.667H97.2057C92.7822 168.667 89.2017 165.35 89.2017 161.258V148.515C76.7433 147.886 66.369 159.183 79.9255 178.158C81.1165 179.952 68.4068 182.826 62.4444 182.099C60.8745 180.479 58.6086 179.456 56.0721 179.456C54.9546 179.456 53.8913 179.661 52.913 180.02C52.913 180.02 29.4849 157.941 29.0557 157.726L29.2491 157.279C30.5831 154.795 28.5415 152.089 27.25 152.278C28.7503 150.487 28.8199 142.647 20.4988 140.833C20.7424 142.408 20.8661 145.622 20.8661 145.622C20.8661 145.622 14.4436 142.166 11.2188 145.149C8.38455 148.488 12.3169 154.546 12.3169 154.546C12.3169 154.546 9.03028 154.625 7.41015 154.489C9.79201 162.507 17.7805 161.939 19.5089 160.357C19.3968 161.633 22.2852 163.45 24.7328 161.992L25.8077 161.474C25.9972 161.727 48.8144 183.185 48.8144 183.185C47.7665 184.734 47.2677 186.634 47.6118 188.66C48.1532 191.825 50.8018 194.448 54.1852 195.13C56.5748 195.607 58.8213 195.145 60.6232 194.096L66.6629 199.677C67.2004 200.161 67.9273 200.464 68.7393 200.407C70.2164 200.309 71.3222 199.116 71.2101 197.75C71.1637 197.132 70.8466 196.602 70.4097 196.201C70.313 196.095 64.2578 190.5 64.2578 190.5C69.2536 187.013 78.5606 184.556 86.2862 184.556C87.6434 184.556 88.2814 183.413 87.8135 182.292C84.3142 173.914 91.8387 167.845 99.6223 172.786C103.017 174.94 106.466 179.184 109.065 186.263C96.2931 189.341 80.2581 197.821 77.0139 207.078C75.765 210.652 79.8907 215.524 84.9019 216.505C85.0914 216.546 85.2731 216.421 85.3079 216.243C87.9257 202.425 102.855 192.128 110.623 190.378C111.014 191.42 110.886 191.083 111.276 192.12C102.816 196.103 94.6111 204.503 92.2679 214.49C91.193 219.064 96.3163 223.187 100.546 224.315C100.759 224.372 100.968 224.224 100.98 224.019C101.784 211.39 107.387 200.665 112.406 195.785C112.541 196.724 112.645 197.685 112.715 198.658C112.715 198.658 107.576 212.912 107.576 223.312C107.576 228.15 114.799 231.527 115.866 232C117.2 231.527 124.419 228.15 124.419 223.312C124.419 212.912 119.28 198.658 119.28 198.658C119.354 197.685 119.454 196.724 119.594 195.785C124.609 200.665 130.215 211.386 131.016 224.016C131.027 224.22 131.24 224.372 131.449 224.315C135.683 223.187 140.802 219.064 139.731 214.49C137.384 204.503 129.183 196.103 120.723 192.12C121.109 191.083 120.982 191.42 121.372 190.378C129.144 192.128 144.07 202.425 146.687 216.243C146.722 216.421 146.908 216.546 147.093 216.505C152.101 215.524 156.234 210.652 154.977 207.078C151.741 197.821 135.702 189.341 122.931 186.263C125.533 179.184 128.982 174.94 132.377 172.786C140.157 167.845 147.681 173.914 144.182 182.292C143.714 183.413 144.348 184.556 145.709 184.556C154.448 184.556 165.213 187.698 169.474 191.912C172.196 195.978 177.226 198.579 182.903 198.022C189.352 197.394 194.611 192.57 195.338 186.608C195.972 181.383 193.257 176.693 188.931 174.137L181.387 180.043ZM125.811 141.984C128.499 140.992 132.709 141.795 132.566 145.656C132.531 146.531 133.765 146.531 133.854 145.637C134.658 139.856 130.733 138.191 126.627 138.868C126.117 136.881 125.699 135.143 125.224 133.421C124.845 132.027 124.705 129.411 126.326 129.411C127.199 129.411 126.848 131.846 126.766 132.894C126.693 133.814 127.025 134.371 127.776 134.397C128.243 134.416 128.827 133.822 129.175 133.428C131.526 130.782 132.071 126.686 129.318 124.709C127.014 123.051 121.245 124.285 119.659 126.648C119.42 125.758 118.275 124.289 117.726 123.649C117.192 123.025 117.053 122.597 117.792 122.048C118.14 121.783 119.192 120.742 119.192 119.667C119.192 119.031 118.697 117.857 117.123 117.857C115.882 117.857 114.501 118.713 114.501 120.621C114.501 121.045 114.606 121.499 114.88 121.987C114.095 121.859 111.965 121.912 110.87 122.18L126.001 163.51C130.331 161.383 133.506 158.013 133.506 154.398C133.506 151.316 128.947 152.338 126.732 154.742C126.02 150.835 125.386 147.227 124.694 143.631C124.504 142.639 125.011 142.283 125.811 141.984ZM104.417 113.908L107.595 122.699C104.873 123.343 100.496 125.319 100.496 127.935C100.496 131.418 106.687 133.686 110.267 133.413C110.089 134.208 110.294 134.916 110.851 135.563C109.552 135.563 107.1 136.165 106.296 137.028C104.398 135.268 101.428 134.628 100.017 135.7C98.5977 136.779 98.5551 138.607 100.036 140.674C101.068 142.105 101.455 143.517 100.295 145.176C104.61 145.176 103.021 139.591 104.711 139.591C104.49 140.674 104.626 141.927 105.117 143.317C105.442 144.24 105.442 144.895 104.885 145.785C103.493 148 101.328 153.088 101.621 157.688C100.206 157.68 99.487 157.336 99.9858 155.412C100.171 154.697 99.7267 154.186 99.139 155.068C98.4894 156.041 98.1762 157.703 98.1762 158.415C98.1762 162.511 103.079 163.336 104.951 162.469C110.364 167.684 120.997 166.293 124.558 164.544L105.836 113.409C105.453 112.443 104.081 112.905 104.417 113.908ZM103.767 156.03C103.381 153.925 106.323 150.162 110.066 146.531C109.27 148.897 109.765 152.974 111.327 154.379C108.612 154.379 105.388 154.886 103.767 156.03Z" fill="white"/>
</svg>
